<svg xmlns="http://www.w3.org/2000/svg" viewBox="0 0 64 64" role="img" aria-label="鸿宇服饰 Logo">
  <defs>
    <linearGradient id="hy-bg" x1="10" y1="8" x2="54" y2="56" gradientUnits="userSpaceOnUse">
      <stop offset="0" stop-color="#183a63" />
      <stop offset="1" stop-color="#0d2038" />
    </linearGradient>
    <linearGradient id="hy-accent" x1="20" y1="18" x2="44" y2="46" gradientUnits="userSpaceOnUse">
      <stop offset="0" stop-color="#f2d7a1" />
      <stop offset="1" stop-color="#caa46a" />
    </linearGradient>
  </defs>
  <rect x="4" y="4" width="56" height="56" rx="14" fill="url(#hy-bg)" />
  <path
    d="M24 18v28h5V35h6.5l8.5 11h6L40.7 34.3A9.5 9.5 0 0 0 44 27c0-5.2-4.1-9-10.1-9H24Zm5 5h4.2c3.5 0 5.5 1.5 5.5 4.3 0 2.8-2 4.5-5.5 4.5H29V23Z"
    fill="#ffffff"
  />
  <path
    d="M34 17.2c0-1.1-.9-2-2-2s-2 .9-2 2c0 .8.5 1.5 1.1 1.8v3.7l-8.6 6.5c-.8.6-.9 1.7-.4 2.5.6.8 1.7.9 2.5.4L32 27l7.4 5.1c.8.6 1.9.4 2.5-.4.6-.8.4-1.9-.4-2.5l-8.6-6.5V19c.7-.3 1.1-1 1.1-1.8Z"
    fill="url(#hy-accent)"
  />
</svg>
